<svg width="14" height="14" viewBox="0 0 14 14" fill="none" xmlns="http://www.w3.org/2000/svg">
<g id="ArrowUpRight">
<path id="Vector" d="M2.96363 9.9639L2.96364 9.96389L8.67234 4.25625H4.81223C4.61166 4.25625 4.41931 4.17657 4.27748 4.03475C4.13566 3.89293 4.05598 3.70057 4.05598 3.5C4.05598 3.29943 4.13566 3.10707 4.27748 2.96525C4.41931 2.82343 4.61166 2.74375 4.81223 2.74375H10.4997C10.7003 2.74375 10.8927 2.82343 11.0345 2.96525L10.9643 3.03548L11.0345 2.96525C11.1763 3.10707 11.256 3.29943 11.256 3.5V9.1875C11.256 9.38807 11.1763 9.58042 11.0345 9.72225C10.8927 9.86407 10.7003 9.94375 10.4997 9.94375C10.2992 9.94375 10.1068 9.86407 9.96498 9.72225C9.82316 9.58042 9.74348 9.38807 9.74348 9.1875V5.32733L4.03474 11.035C4.03474 11.035 4.03474 11.035 4.03473 11.035C3.8927 11.177 3.70005 11.2568 3.49919 11.2568C3.29831 11.2568 3.10567 11.177 2.96363 11.035M2.96363 9.9639L2.96363 11.035M2.96363 9.9639C2.82159 10.1059 2.7418 10.2986 2.7418 10.4995C2.7418 10.7003 2.82159 10.893 2.96363 11.035M2.96363 9.9639L2.96363 11.035" fill="#989EA4" stroke="#989EA4" stroke-width="0.2"/>
</g>
</svg>
