<svg width="202" height="38" viewBox="0 0 202 38" fill="none" xmlns="http://www.w3.org/2000/svg">
<g id="Group">
<g id="Page-1_4_">
<g id="Group_2">
<g id="Send-Copy_12_">
<g id="FIRMA-CHAIN_12_">
<path id="Path_126_" d="M16.8432 26.7066L16.0888 26.2408V18.7033L20.0384 16.5436L16.8432 14.7651L12.8936 16.9248V28.0193L16.8432 30.1789L27.0502 24.6316L23.9437 22.8108L16.8432 26.7066Z" fill="white"/>
<path id="Path_125_" d="M16.8435 0.875977L0.246094 9.93791V28.0618L3.39694 29.7979V11.6741L16.8435 4.34831L22.9233 7.65126L23.6333 4.56003L16.8435 0.875977Z" fill="white"/>
<path id="Path_124_" d="M30.3335 11.7166V26.3258L16.8426 33.6515L9.7421 29.7558V15.1889L16.8426 11.2931L23.9875 15.1889L27.1827 13.4528L16.8426 7.8208L6.54688 13.4528V31.5343L16.8426 37.1239L33.4844 28.0619V9.93808L30.3335 11.7166Z" fill="white"/>
<path id="Path_123_" d="M45.8662 10.6577H59.1353V13.6219H49.5052V18.534H57.8039V21.4982H49.5052V28.5275H45.8662V10.6577Z" fill="white"/>
<path id="Path_122_" d="M61.3994 10.6577H65.0384V28.5275H61.3994V10.6577Z" fill="white"/>
<path id="Shape_38_" d="M83.322 22.5991V28.5275H79.683V23.4037L78.0853 21.7099H72.2718V28.5275H68.6328V10.6577H80.4374L83.2332 13.4102V18.788L81.4137 20.5666L83.322 22.5991ZM72.2718 18.8304H78.7066L79.6386 17.9411V14.4688L78.7066 13.5796H72.2718V18.8304Z" fill="white"/>
<path id="Path_121_" d="M86.6953 10.6577H90.0237L95.6153 22.1757L101.251 10.6577H104.58V28.5275H101.118V17.6447L96.9023 26.0291H94.5059L90.2899 17.6447V28.5275H86.6953V10.6577Z" fill="white"/>
<path id="Shape_37_" d="M113.32 10.6577H116.648L123.483 28.4852H119.888L118.379 24.547H111.723L110.214 28.4852H106.53L113.32 10.6577ZM117.447 21.7099L114.962 15.0193L112.566 21.7099H117.447Z" fill="white"/>
<path id="Path_120_" d="M125.171 25.6057V13.6219L128.233 10.6577H137.375L140.393 13.5372V16.2473H136.798V14.8076L135.511 13.6219H130.186L128.766 14.977V24.3777L130.186 25.6904H135.511L136.798 24.5047V22.8956H140.393V25.6057L137.375 28.4852H128.233L125.171 25.6057Z" fill="white"/>
<path id="Path_119_" d="M142.965 10.6577H146.604V18.1529H154.503V10.6577H158.142V28.5275H154.503V21.0747H146.604V28.5275H142.965V10.6577Z" fill="white"/>
<path id="Shape_36_" d="M166.842 10.6577H170.17L177.004 28.4852H173.321L171.812 24.547H165.244L163.735 28.4852H160.052L166.842 10.6577ZM170.969 21.7099L168.484 15.0193L166.087 21.7099H170.969Z" fill="white"/>
<path id="Path_118_" d="M179.001 10.6577H182.64V28.5275H179.001V10.6577Z" fill="white"/>
<path id="Path_117_" d="M186.233 10.6577H189.517L197.816 22.7685V10.6577H201.366V28.5275H198.082L189.739 16.4167V28.5275H186.233V10.6577Z" fill="white"/>
</g>
</g>
</g>
</g>
</g>
</svg>
